<svg width="324" height="199" viewBox="0 0 324 199" fill="none" xmlns="http://www.w3.org/2000/svg">
<g clip-path="url(#clip0_1370_1022)">
<path d="M289.25 0H22.4628L22.0122 0.452608V198.546L22.4628 199H289.25L289.7 198.546V0.452608L289.25 0Z" fill="#9D9A00"/>
<path d="M274.795 11.1853H36.9175V187.813H274.795V11.1853Z" fill="#09150D"/>
<path d="M274.795 188.266H36.9174L36.4668 187.813V11.1853L36.9174 10.7327H274.795L275.246 11.1853V187.813L274.795 188.266ZM37.3695 187.361H274.346V11.6379H37.3695V187.361Z" fill="#09150D"/>
<path d="M176.876 47.7341C175.501 46.9297 174.173 47.2903 173.232 48.7255C154.316 77.5654 132.865 104.062 103.673 122.936C88.5791 132.694 72.646 140.307 54.8246 143.248C43.5765 145.103 35.2909 144.468 30.1945 141.358C26.9471 139.376 23.0906 135.273 22.9147 130.233C22.7272 124.883 22.9133 108.699 22.9147 108.535L22.3595 108.09C22.1342 108.144 16.7848 109.461 11.312 113.259C2.11782 119.637 0.0871123 127.86 0.00280242 133.636C-0.16291 144.978 8.58351 156.134 22.2853 162.056C26.6535 163.943 32.0493 164.892 38.2533 164.892C42.8119 164.892 47.8065 164.38 53.1486 163.354C63.9373 161.277 75.5212 157.248 85.7649 152.003C112.82 138.154 134.138 121.28 149.132 101.853C156.658 92.1014 174.53 67.6197 177.936 50.933C178.235 49.4672 177.885 48.3955 176.876 47.7356V47.7341Z" fill="#FF6130"/>
<path d="M289.701 198.546L274.795 188.148V11.1853L36.5746 11.2407L22.4629 0H289.712L289.701 198.546Z" fill="#00A7BA"/>
<path d="M316.707 83.8756C318.592 85.14 324.07 80.1088 322.019 76.4923C319.989 72.9123 309.058 60.4159 306.389 71.4815C305.443 75.4075 311.474 80.3657 316.706 83.8756H316.707Z" fill="#09150D"/>
<path d="M319.818 84.3428C317.042 79.9802 309.646 71.0273 304.404 71.0273C304.376 71.0273 304.347 71.0273 304.321 71.0273C297.049 71.1602 283.886 83.4376 282.983 90.9319C282.85 92.0415 283.925 92.6897 285.171 93.4417C286.857 94.4593 288.77 95.6142 288.77 98.1502V129.082L289.254 129.533C289.31 129.529 294.887 129.079 301.466 126.362C307.551 123.85 315.776 118.829 320.4 109.178C323.195 103.345 323.419 89.9975 319.82 84.3413L319.818 84.3428Z" fill="#CC78B4"/>
<path d="M307.046 60.5882C298.858 57.2433 280.037 57.7411 270.675 59.5545C262.412 61.1547 249.777 65.9757 242.638 71.7574C237.553 75.8761 222.078 88.4119 222.255 101.8C222.261 102.197 222.481 102.684 222.953 102.816C223.032 102.838 223.11 102.85 223.19 102.85C223.702 102.85 224.243 102.397 224.802 101.501C228.932 94.8798 238.181 90.5581 242.996 89.047C260.612 83.5208 273.413 84.1179 282.13 90.8735C282.842 91.4254 283.6 91.675 284.393 91.675C287.886 91.675 292.113 86.8599 296.538 81.8184C300.632 77.1551 304.866 72.3312 308.24 71.8464C310.038 71.588 312.736 73.0816 315.345 74.5256C318.238 76.1272 320.971 77.6384 323.081 77.3069C323.333 77.2675 323.974 76.9594 323.994 76.463C324.253 70.2813 311.974 62.603 307.045 60.5882H307.046Z" fill="#FF6130"/>
<path opacity="0.4" d="M223.216 102.14C223.084 102.397 223.175 102.933 224.216 102.332C228.363 99.9358 234.515 100.615 236.812 100.936C246.622 102.31 256.116 112.479 256.116 112.479L273.77 103.527C273.77 103.527 264.736 95.7456 258.383 94.0738C254.22 92.9774 246.599 91.6487 241.222 92.6839C236.233 93.6446 226.431 95.8726 223.215 102.139L223.216 102.14Z" fill="#FF6130"/>
<path opacity="0.4" d="M109.263 155.588L121.703 164.444C121.703 164.444 140.485 149.829 152.316 133.659C162.913 119.176 169.153 105.896 175.885 91.7013C179.765 83.5207 185.316 69.9454 185.211 61.6408C185.207 61.2568 185.136 60.5662 184.455 60.3078C183.495 59.9953 183.102 60.7078 182.95 61.1064C177.821 74.4788 170.245 86.5211 162.442 98.4582C155.512 109.059 147.823 119.537 139.116 128.894C130.012 138.679 119.684 147.271 109.261 155.589L109.263 155.588Z" fill="#FF6130"/>
</g>
<defs>
<clipPath id="clip0_1370_1022">
<rect width="324" height="199" fill="white"/>
</clipPath>
</defs>
</svg>
