<svg width="191" height="238" viewBox="0 0 191 238" fill="none" xmlns="http://www.w3.org/2000/svg">
<g clip-path="url(#clip0_1366_1008)">
<path d="M125.927 3.74701L85.6086 0L85.1411 0.432135V10.5148L85.6345 10.9442L125.953 4.6099L125.927 3.74701Z" fill="#09150D"/>
<path d="M125.927 3.74707L69.0776 12.5416L69.1035 13.4031L125.849 18.6385L126.317 18.2063V4.26895L125.927 3.74707Z" fill="#9D9A00"/>
<path d="M69.0773 12.5416L68.7134 12.971V27.9066L69.1768 28.3387L153.977 21.2865L153.981 20.4208L69.0773 12.5416Z" fill="#09150D"/>
<path d="M153.981 20.4208L44.2189 29.8159L44.1753 30.676L153.863 51.4765L154.371 51.0485V20.8529L153.981 20.4208Z" fill="#00A7BA"/>
<path d="M44.2191 29.8159L43.8252 30.2481V61.8588L44.2668 62.2923L184.99 58.4293H190.571V57.5609L44.2191 29.8159Z" fill="#9D9A00"/>
<path d="M190.571 57.5609H0.429324L0 57.9958V237.566L0.429324 238H190.571L191 237.566V57.9958L190.571 57.5609Z" fill="#FFB21C"/>
<g opacity="0.4">
<path d="M71.6535 164.421C80.7261 164.421 88.0809 156.971 88.0809 147.781C88.0809 138.59 80.7261 131.14 71.6535 131.14C62.5809 131.14 55.2261 138.59 55.2261 147.781C55.2261 156.971 62.5809 164.421 71.6535 164.421Z" fill="#09150D"/>
<path d="M71.6535 164.566C62.5164 164.566 55.083 157.036 55.083 147.78C55.083 138.525 62.5164 130.995 71.6535 130.995C80.7906 130.995 88.2241 138.525 88.2241 147.78C88.2241 157.036 80.7906 164.566 71.6535 164.566ZM71.6535 131.285C62.6745 131.285 55.3692 138.685 55.3692 147.78C55.3692 156.876 62.6745 164.276 71.6535 164.276C80.6325 164.276 87.9379 156.876 87.9379 147.78C87.9379 138.685 80.6325 131.285 71.6535 131.285Z" fill="#09150D"/>
</g>
<path d="M103.298 110.772C107.343 117.231 105.452 125.791 99.0743 129.888C92.6972 133.985 84.247 132.069 80.2032 125.609C76.158 119.149 78.0497 110.591 84.4269 106.493C90.8041 102.395 99.2529 104.312 103.298 110.772Z" fill="url(#paint0_radial_1366_1008)"/>
</g>
<defs>
<radialGradient id="paint0_radial_1366_1008" cx="0" cy="0" r="1" gradientTransform="matrix(12.5512 -8.06242 7.95911 12.7141 93.4967 112.211)" gradientUnits="userSpaceOnUse">
<stop stop-color="#FF2507"/>
<stop offset="0.2" stop-color="#FB2406"/>
<stop offset="0.34" stop-color="#F22206"/>
<stop offset="0.47" stop-color="#E11F05"/>
<stop offset="0.59" stop-color="#CA1A04"/>
<stop offset="0.7" stop-color="#AD1402"/>
<stop offset="0.81" stop-color="#890D00"/>
<stop offset="0.83" stop-color="#800C00"/>
<stop offset="0.87" stop-color="#7A0C01"/>
<stop offset="0.92" stop-color="#6B0C05"/>
<stop offset="0.97" stop-color="#520C0C"/>
<stop offset="1" stop-color="#430D10"/>
</radialGradient>
<clipPath id="clip0_1366_1008">
<rect width="191" height="238" fill="white"/>
</clipPath>
</defs>
</svg>
