<svg width="372" height="272" viewBox="0 0 372 272" fill="none" xmlns="http://www.w3.org/2000/svg">
<g clip-path="url(#clip0_1370_1036)">
<path d="M0 159.146L42.9201 202.178V0.484741L0 24.7823V159.146Z" fill="#09150D"/>
<path d="M273.833 29.7463C272.33 28.7281 270.111 28.8317 268.441 29.9974C245.298 46.1398 233.754 63.1451 228.143 74.5682C224.961 81.0462 223.307 86.4589 222.479 89.8587C221.579 93.5582 221.435 95.6981 221.43 95.7876L221.382 96.5579L222.091 96.2676C242.95 87.7375 256.203 71.4241 263.648 59.2416C271.307 46.7093 274.553 35.8729 274.908 34.5942L274.923 34.5989C275.148 33.7862 275.733 31.0328 273.833 29.7463Z" fill="#FFB21C"/>
<path d="M244.688 153.242C227.989 131.924 211.173 121.83 200.008 117.117C187.879 111.996 179.825 111.935 179.487 111.933H178.722L179.053 112.628C188.396 132.195 204.644 143.975 216.628 150.409C229.612 157.379 240.252 159.701 240.7 159.797C240.985 159.858 241.517 159.949 242.13 159.949C243.21 159.949 244.545 159.667 245.253 158.443C246.131 156.926 245.899 154.786 244.688 153.241V153.242Z" fill="#0F2115"/>
<path d="M340.965 127.147L341.646 126.795L341.036 126.329C324.793 113.907 306.066 111.047 293.216 110.833C279.29 110.604 269.292 113.281 268.872 113.395C268.133 113.598 265.71 114.423 265.595 116.541C265.505 118.212 266.622 119.923 268.313 120.703C287.694 129.643 303.791 131.946 315.229 131.946C317.486 131.946 319.56 131.856 321.443 131.711C333.863 130.747 340.68 127.294 340.965 127.147Z" fill="#FF6130"/>
<path d="M237.445 189.112C211.943 188.401 194.453 194.595 184.275 199.914C173.216 205.694 168.279 211.56 168.075 211.806L167.583 212.399L168.326 212.587C174.307 214.111 180.158 214.738 185.741 214.738C198.631 214.738 210.091 211.389 218.411 207.983C230.975 202.838 239.094 196.589 239.762 196.056H239.763C240.366 195.58 242.275 193.867 241.561 191.872C240.996 190.298 239.303 189.162 237.445 189.11V189.112Z" fill="#FFB21C"/>
<path d="M296.657 194.732C294.959 194.09 292.822 194.704 291.459 196.227C272.591 217.324 265.218 236.573 262.357 249.005C259.249 262.508 260.642 271.153 260.656 271.239L260.784 272L261.408 271.553C279.788 258.404 288.982 239.434 293.459 225.835C298.34 211.008 298.824 199.291 298.824 199.206C298.857 198.362 298.799 195.544 296.655 194.732H296.657Z" fill="#FF6130"/>
<path d="M371.56 234.255C360.335 208.198 346.016 193.458 335.98 185.679C330.288 181.269 325.338 178.578 322.185 177.097C318.756 175.486 316.7 174.929 316.615 174.906L315.874 174.708L316.019 175.466C320.265 197.744 333.544 214.023 343.936 223.756C355.2 234.306 365.387 239.56 365.817 239.778C366.268 240.007 367.382 240.504 368.551 240.504C369.319 240.504 370.111 240.289 370.754 239.643C372.038 238.352 372.369 236.137 371.558 234.255H371.56Z" fill="#0F2115"/>
<path d="M141.251 0H42.9203L42.4395 0.48479V202.178L42.9203 202.663H141.251L141.732 202.178V0.48479L141.251 0Z" fill="#FFB21C"/>
<path opacity="0.4" d="M105.988 133.935C105.988 133.935 109.819 111.103 141.364 92.7596C141.744 92.5384 141.439 96.1296 141.364 99.6188C141.299 102.669 141.481 105.664 141.481 105.664C141.481 105.664 123.864 128.723 105.988 133.934V133.935Z" fill="#FF6130"/>
<path opacity="0.4" d="M93.412 44.2665C94.6879 52.3259 94.8793 62.5081 92.5328 74.8569C92.3197 75.9802 91.4763 77.0706 90.3108 77.2918C89.2169 77.4989 88.3253 76.5011 87.8507 75.6366C87.8507 75.6366 81.6281 64.2825 80.2417 48.9905C80.2417 48.9905 82.4155 45.7978 86.8097 44.2712C90.6671 42.933 93.412 44.2649 93.412 44.2649V44.2665Z" fill="#FF6130"/>
<path d="M161.195 94.2626C159.92 93.1911 157.891 93.0718 156.262 93.9724C133.892 106.332 121.897 120.568 115.772 130.335C109.119 140.947 107.791 148.521 107.738 148.838L107.611 149.599L108.347 149.384C127.922 143.68 141.38 130.259 149.224 120.005C157.726 108.893 161.579 99.1968 161.739 98.7889C162.021 98.0703 162.811 95.6197 161.196 94.2611L161.195 94.2626Z" fill="#0F2115"/>
<path d="M93.4805 45.3113C93.4805 52.7605 89.0552 58.7976 83.5966 58.7976C78.138 58.7976 73.6457 52.5832 73.7127 45.3113C73.7796 38.0363 78.138 31.8251 83.5966 31.8251C89.0552 31.8251 93.4805 37.8638 93.4805 45.3113Z" fill="#09150D"/>
<path d="M111.05 56.9965C101.413 46.5649 91.0499 38.4474 80.2479 32.8684L80.0051 32.7429C80.0051 32.7429 76.3111 34.351 74.4952 40.043C72.628 45.8966 74.6212 50.9688 74.6212 50.9688L74.766 51.0567C91.3066 61.0647 107.222 63.1843 107.897 63.2721C108.079 63.2957 108.365 63.3223 108.709 63.3223C109.746 63.3223 111.291 63.0713 111.946 61.6891C112.634 60.241 112.265 58.3113 111.05 56.995V56.9965Z" fill="#FF6130"/>
</g>
<defs>
<clipPath id="clip0_1370_1036">
<rect width="372" height="272" fill="white"/>
</clipPath>
</defs>
</svg>
